<svg width="75" height="21" viewBox="0 0 75 21" fill="none" xmlns="http://www.w3.org/2000/svg">
<g clip-path="url(#clip0_494_2380)">
<path d="M13.5359 5.09692L9.92344 3.01255C8.74219 2.32817 7.29219 2.32817 6.11094 3.01255L2.48281 5.09692C1.31719 5.7813 0.585938 7.04692 0.585938 8.40005V12.5844C0.585938 13.9532 1.31719 15.2032 2.48281 15.8875L6.09531 17.9875C7.27656 18.6719 8.72656 18.6719 9.90781 17.9875L13.5203 15.8875C14.7016 15.2032 15.4172 13.9532 15.4172 12.5844V8.40005C15.4516 7.04692 14.7172 5.7813 13.5359 5.09692ZM8.00781 14.2188C5.96094 14.2188 4.29531 12.55 4.29531 10.5C4.29531 8.45005 5.96094 6.7813 8.00781 6.7813C10.0547 6.7813 11.7359 8.45005 11.7359 10.5C11.7391 12.55 10.0734 14.2188 8.00781 14.2188Z" fill="white"/>
</g>
<path d="M25.0394 16V5.92H26.1734L29.9814 13.949L33.7684 5.92H34.9164V15.993H33.7334V8.657L30.3104 16H29.6454L26.2224 8.657V16H25.0394ZM39.8752 16.21C39.1332 16.21 38.4846 16.0467 37.9292 15.72C37.3786 15.3887 36.9492 14.929 36.6412 14.341C36.3332 13.7483 36.1792 13.0577 36.1792 12.269C36.1792 11.443 36.3309 10.729 36.6342 10.127C36.9376 9.52033 37.3599 9.05367 37.9012 8.727C38.4472 8.39567 39.0866 8.23 39.8192 8.23C40.5799 8.23 41.2262 8.405 41.7582 8.755C42.2949 9.105 42.6962 9.60433 42.9622 10.253C43.2329 10.9017 43.3496 11.674 43.3122 12.57H42.0522V12.122C42.0382 11.1933 41.8492 10.5003 41.4852 10.043C41.1212 9.581 40.5799 9.35 39.8612 9.35C39.0912 9.35 38.5056 9.59733 38.1042 10.092C37.7029 10.5867 37.5022 11.296 37.5022 12.22C37.5022 13.1113 37.7029 13.802 38.1042 14.292C38.5056 14.782 39.0772 15.027 39.8192 15.027C40.3186 15.027 40.7526 14.9127 41.1212 14.684C41.4899 14.4553 41.7792 14.1263 41.9892 13.697L43.1862 14.11C42.8922 14.7773 42.4489 15.2953 41.8562 15.664C41.2682 16.028 40.6079 16.21 39.8752 16.21ZM37.0822 12.57V11.569H42.6682V12.57H37.0822ZM47.5587 16.21C46.854 16.21 46.2497 16.035 45.7457 15.685C45.2417 15.3303 44.852 14.852 44.5767 14.25C44.306 13.648 44.1707 12.969 44.1707 12.213C44.1707 11.457 44.306 10.778 44.5767 10.176C44.852 9.574 45.2417 9.10033 45.7457 8.755C46.2497 8.405 46.8517 8.23 47.5517 8.23C48.2657 8.23 48.8654 8.40267 49.3507 8.748C49.836 9.09333 50.2024 9.567 50.4497 10.169C50.7017 10.771 50.8277 11.4523 50.8277 12.213C50.8277 12.9643 50.7017 13.6433 50.4497 14.25C50.2024 14.852 49.836 15.3303 49.3507 15.685C48.8654 16.035 48.268 16.21 47.5587 16.21ZM47.7127 15.069C48.2214 15.069 48.639 14.9477 48.9657 14.705C49.2924 14.4577 49.5327 14.1193 49.6867 13.69C49.8454 13.256 49.9247 12.7637 49.9247 12.213C49.9247 11.653 49.8454 11.1607 49.6867 10.736C49.5327 10.3067 49.2947 9.973 48.9727 9.735C48.6507 9.49233 48.2424 9.371 47.7477 9.371C47.2344 9.371 46.8097 9.497 46.4737 9.749C46.1424 10.001 45.895 10.3417 45.7317 10.771C45.573 11.2003 45.4937 11.681 45.4937 12.213C45.4937 12.7497 45.5754 13.235 45.7387 13.669C45.902 14.0983 46.147 14.439 46.4737 14.691C46.805 14.943 47.218 15.069 47.7127 15.069ZM49.9247 16V10.435H49.7847V5.92H51.0377V16H49.9247ZM55.5889 16.196C55.1036 16.196 54.6859 16.119 54.3359 15.965C53.9906 15.811 53.7036 15.6057 53.4749 15.349C53.2462 15.0923 53.0666 14.8077 52.9359 14.495C52.8052 14.1823 52.7119 13.8627 52.6559 13.536C52.6046 13.2093 52.5789 12.9037 52.5789 12.619V8.44H53.8389V12.227C53.8389 12.5817 53.8716 12.9247 53.9369 13.256C54.0022 13.5873 54.1119 13.886 54.2659 14.152C54.4246 14.418 54.6346 14.628 54.8959 14.782C55.1619 14.936 55.4932 15.013 55.8899 15.013C56.2026 15.013 56.4872 14.9593 56.7439 14.852C57.0006 14.7447 57.2199 14.586 57.4019 14.376C57.5839 14.1613 57.7239 13.8907 57.8219 13.564C57.9199 13.2373 57.9689 12.857 57.9689 12.423L58.7879 12.675C58.7879 13.403 58.6549 14.0307 58.3889 14.558C58.1276 15.0853 57.7566 15.4913 57.2759 15.776C56.7999 16.056 56.2376 16.196 55.5889 16.196ZM58.1089 16V13.977H57.9689V8.44H59.2219V16H58.1089ZM63.7578 16.203C62.8571 16.203 62.1175 16.007 61.5388 15.615C60.9648 15.2183 60.6125 14.6653 60.4818 13.956L61.7558 13.753C61.8585 14.1637 62.0941 14.4903 62.4628 14.733C62.8315 14.971 63.2888 15.09 63.8348 15.09C64.3528 15.09 64.7588 14.9827 65.0528 14.768C65.3468 14.5533 65.4938 14.2617 65.4938 13.893C65.4938 13.6783 65.4448 13.5057 65.3468 13.375C65.2488 13.2397 65.0458 13.1137 64.7378 12.997C64.4345 12.8803 63.9748 12.7403 63.3588 12.577C62.6915 12.3997 62.1665 12.2153 61.7838 12.024C61.4011 11.8327 61.1281 11.611 60.9648 11.359C60.8015 11.107 60.7198 10.8013 60.7198 10.442C60.7198 9.99867 60.8411 9.61133 61.0838 9.28C61.3265 8.944 61.6648 8.685 62.0988 8.503C62.5375 8.321 63.0461 8.23 63.6248 8.23C64.1988 8.23 64.7121 8.321 65.1648 8.503C65.6175 8.685 65.9815 8.944 66.2568 9.28C66.5368 9.61133 66.7025 9.99867 66.7538 10.442L65.4798 10.673C65.4191 10.267 65.2231 9.94733 64.8918 9.714C64.5651 9.48067 64.1428 9.357 63.6248 9.343C63.1348 9.32433 62.7358 9.41067 62.4278 9.602C62.1245 9.79333 61.9728 10.0523 61.9728 10.379C61.9728 10.561 62.0288 10.7173 62.1408 10.848C62.2575 10.9787 62.4698 11.1023 62.7778 11.219C63.0905 11.3357 63.5431 11.4687 64.1358 11.618C64.8031 11.786 65.3281 11.9703 65.7108 12.171C66.0981 12.367 66.3735 12.6003 66.5368 12.871C66.7001 13.137 66.7818 13.466 66.7818 13.858C66.7818 14.586 66.5135 15.16 65.9768 15.58C65.4401 15.9953 64.7005 16.203 63.7578 16.203ZM70.1946 16.21C69.63 16.21 69.1563 16.1073 68.7736 15.902C68.3956 15.692 68.1086 15.4167 67.9126 15.076C67.7213 14.7353 67.6256 14.362 67.6256 13.956C67.6256 13.5593 67.7003 13.2163 67.8496 12.927C68.0036 12.633 68.2183 12.3903 68.4936 12.199C68.769 12.003 69.098 11.849 69.4806 11.737C69.84 11.639 70.2413 11.555 70.6846 11.485C71.1326 11.4103 71.5853 11.3427 72.0426 11.282C72.5 11.2213 72.927 11.163 73.3236 11.107L72.8756 11.366C72.8896 10.694 72.7543 10.197 72.4696 9.875C72.1896 9.553 71.7043 9.392 71.0136 9.392C70.5563 9.392 70.155 9.497 69.8096 9.707C69.469 9.91233 69.2286 10.2483 69.0886 10.715L67.9056 10.358C68.0876 9.69533 68.44 9.175 68.9626 8.797C69.4853 8.419 70.1736 8.23 71.0276 8.23C71.7136 8.23 72.3016 8.35367 72.7916 8.601C73.2863 8.84367 73.641 9.21233 73.8556 9.707C73.963 9.94033 74.0306 10.1947 74.0586 10.47C74.0866 10.7407 74.1006 11.0253 74.1006 11.324V16H72.9946V14.187L73.2536 14.355C72.969 14.9663 72.57 15.4283 72.0566 15.741C71.548 16.0537 70.9273 16.21 70.1946 16.21ZM70.3836 15.167C70.8316 15.167 71.219 15.0877 71.5456 14.929C71.877 14.7657 72.143 14.5533 72.3436 14.292C72.5443 14.026 72.675 13.7367 72.7356 13.424C72.8056 13.1907 72.843 12.9317 72.8476 12.647C72.857 12.3577 72.8616 12.136 72.8616 11.982L73.2956 12.171C72.8896 12.227 72.4906 12.2807 72.0986 12.332C71.7066 12.3833 71.3356 12.4393 70.9856 12.5C70.6356 12.556 70.3206 12.6237 70.0406 12.703C69.8353 12.7683 69.6416 12.8523 69.4596 12.955C69.2823 13.0577 69.1376 13.1907 69.0256 13.354C68.9183 13.5127 68.8646 13.711 68.8646 13.949C68.8646 14.1543 68.916 14.3503 69.0186 14.537C69.126 14.7237 69.2893 14.8753 69.5086 14.992C69.7326 15.1087 70.0243 15.167 70.3836 15.167Z" fill="white"/>
<defs>
<clipPath id="clip0_494_2380">
<rect width="16" height="16" fill="white" transform="translate(0 2.5)"/>
</clipPath>
</defs>
</svg>
